<svg width="100" height="100" viewBox="0 0 100 100" fill="none" xmlns="http://www.w3.org/2000/svg">
    <g id="flower">
        <g id="petals">
            <path d="M33.2066 36.1596C44.5687 41.4273 51.916 48.2831 49.6171 51.4725C47.3183 54.6619 36.2439 52.9771 24.8818 47.7094C13.5196 42.4417 6.17238 35.5859 8.47121 32.3965C10.77 29.2071 21.8444 30.8919 33.2066 36.1596Z" fill="#C4C4C4" />
            <path d="M24.8409 53.3454C36.2066 48.0826 47.2821 46.4026 49.5788 49.593C51.8755 52.7834 44.5236 59.6361 33.1579 64.8989C21.7923 70.1617 10.7167 71.8417 8.42005 68.6513C6.12336 65.4609 13.4752 58.6082 24.8409 53.3454Z" fill="#C4C4C4" />
            <path d="M41.6773 70.9381C41.6844 60.4125 45.4138 51.8815 50.0071 51.8834C54.6005 51.8854 58.3185 60.4197 58.3114 70.9453C58.3043 81.4709 54.575 90.002 49.9816 90C45.3882 89.998 41.6702 81.4637 41.6773 70.9381Z" fill="#C4C4C4" />
            <path d="M66.8421 64.4817C55.4764 59.2189 48.1245 52.3662 50.4212 49.1758C52.7179 45.9854 63.7934 47.6654 75.1591 52.9282C86.5248 58.191 93.8766 65.0437 91.5799 68.2341C89.2833 71.4245 78.2077 69.7445 66.8421 64.4817Z" fill="#C4C4C4" />
            <path d="M74.7188 47.3479C63.3496 52.6058 52.273 54.2811 49.9784 51.0897C47.6839 47.8983 55.0403 41.0488 66.4095 35.7909C77.7787 30.533 88.8553 28.8577 91.1499 32.0491C93.4444 35.2405 86.088 42.09 74.7188 47.3479Z" fill="#C4C4C4" />
            <path d="M58.1442 30.0583C58.1442 40.5839 54.4205 49.1166 49.8272 49.1166C45.2338 49.1166 41.5101 40.5839 41.5101 30.0583C41.5101 19.5327 45.2338 11 49.8272 11C54.4205 11 58.1442 19.5327 58.1442 30.0583Z" fill="#C4C4C4" />
        </g>
        <g id="petals2">
            <path d="M33.6866 47.5624C43.4838 46.8847 51.31 48.9433 51.1669 52.1604C51.0239 55.3776 42.9657 58.535 33.1685 59.2127C23.3714 59.8904 15.5451 57.8318 15.6882 54.6147C15.8312 51.3976 23.8894 48.2402 33.6866 47.5624Z" fill="#C4C4C4" />
            <path d="M35.5774 63.3083C40.8255 55.007 47.4301 49.4136 50.3292 50.8152C53.2283 52.2168 51.324 60.0825 46.0759 68.3839C40.8278 76.6852 34.2232 82.2786 31.3241 80.877C28.425 79.4755 30.3293 71.6097 35.5774 63.3083Z" fill="#C4C4C4" />
            <path d="M54.325 69.3882C49.7803 61.7667 48.5615 54.1177 51.6027 52.3037C54.6438 50.4898 60.7933 55.1977 65.3379 62.8191C69.8825 70.4406 71.1013 78.0896 68.0602 79.9035C65.019 81.7175 58.8696 77.0096 54.325 69.3882Z" fill="#C4C4C4" />
            <path d="M68.1905 54.769C58.3932 55.4517 50.5653 53.3972 50.7065 50.1802C50.8477 46.9632 58.9045 43.8019 68.7019 43.1193C78.4993 42.4366 86.3272 44.4911 86.186 47.7081C86.0448 50.9251 77.9879 54.0864 68.1905 54.769Z" fill="#C4C4C4" />
            <path d="M65.9986 39.2541C60.7461 47.5533 54.1386 53.1437 51.2406 51.7405C48.3425 50.3374 50.2512 42.4721 55.5037 34.1729C60.7563 25.8737 67.3637 20.2833 70.2618 21.6865C73.1598 23.0896 71.2512 30.9549 65.9986 39.2541Z" fill="#C4C4C4" />
            <path d="M47.5554 33.2902C52.1046 40.9089 53.3279 48.5567 50.2877 50.3721C47.2474 52.1876 41.0948 47.4831 36.5455 39.8644C31.9962 32.2457 30.7729 24.5979 33.8132 22.7824C36.8535 20.967 43.0061 25.6715 47.5554 33.2902Z" fill="#C4C4C4" />
        </g>
        <ellipse id="petalHub" cx="50" cy="49.5238" rx="10" ry="9.52381" fill="#575148" />
        <g id="text" filter="url(#filter0_d_1_2)">
            <path d="M20.392 81.544C20.392 82.032 20.308 82.496 20.14 82.936C19.98 83.376 19.752 83.764 19.456 84.1C19.16 84.428 18.808 84.692 18.4 84.892C17.992 85.084 17.544 85.18 17.056 85.18C16.752 85.18 16.468 85.136 16.204 85.048C15.94 84.968 15.692 84.836 15.46 84.652L15.472 88.012H13.72V78.052H15.472V78.412C15.672 78.252 15.908 78.124 16.18 78.028C16.46 77.932 16.752 77.884 17.056 77.884C17.48 77.884 17.892 77.98 18.292 78.172C18.692 78.356 19.048 78.612 19.36 78.94C19.672 79.268 19.92 79.656 20.104 80.104C20.296 80.544 20.392 81.024 20.392 81.544ZM18.628 81.556C18.628 81.228 18.58 80.932 18.484 80.668C18.388 80.404 18.252 80.18 18.076 79.996C17.908 79.804 17.704 79.66 17.464 79.564C17.232 79.46 16.972 79.408 16.684 79.408C16.5 79.408 16.288 79.448 16.048 79.528C15.816 79.6 15.62 79.7 15.46 79.828V83.152C15.836 83.496 16.256 83.668 16.72 83.668C16.992 83.668 17.244 83.616 17.476 83.512C17.716 83.408 17.92 83.264 18.088 83.08C18.256 82.888 18.388 82.664 18.484 82.408C18.58 82.144 18.628 81.86 18.628 81.556ZM28.6418 81.532C28.6418 82.052 28.5458 82.536 28.3538 82.984C28.1618 83.424 27.8978 83.808 27.5618 84.136C27.2258 84.456 26.8298 84.712 26.3738 84.904C25.9258 85.088 25.4458 85.18 24.9338 85.18C24.4218 85.18 23.9418 85.088 23.4938 84.904C23.0458 84.712 22.6538 84.452 22.3178 84.124C21.9818 83.796 21.7178 83.412 21.5258 82.972C21.3338 82.524 21.2378 82.044 21.2378 81.532C21.2378 81.028 21.3338 80.556 21.5258 80.116C21.7258 79.668 21.9938 79.28 22.3298 78.952C22.6658 78.616 23.0578 78.356 23.5058 78.172C23.9538 77.98 24.4298 77.884 24.9338 77.884C25.4458 77.884 25.9258 77.98 26.3738 78.172C26.8298 78.356 27.2258 78.612 27.5618 78.94C27.8978 79.26 28.1618 79.644 28.3538 80.092C28.5458 80.54 28.6418 81.02 28.6418 81.532ZM26.9138 81.532C26.9138 81.236 26.8618 80.96 26.7578 80.704C26.6538 80.448 26.5098 80.224 26.3258 80.032C26.1498 79.84 25.9418 79.692 25.7018 79.588C25.4618 79.476 25.2058 79.42 24.9338 79.42C24.6618 79.42 24.4058 79.476 24.1658 79.588C23.9258 79.692 23.7138 79.84 23.5298 80.032C23.3538 80.224 23.2138 80.448 23.1098 80.704C23.0058 80.96 22.9538 81.236 22.9538 81.532C22.9538 81.828 23.0058 82.104 23.1098 82.36C23.2138 82.616 23.3538 82.84 23.5298 83.032C23.7138 83.224 23.9258 83.376 24.1658 83.488C24.4058 83.592 24.6618 83.644 24.9338 83.644C25.2058 83.644 25.4618 83.592 25.7018 83.488C25.9418 83.376 26.1498 83.224 26.3258 83.032C26.5098 82.84 26.6538 82.616 26.7578 82.36C26.8618 82.104 26.9138 81.828 26.9138 81.532ZM32.6441 84.964C32.5081 85.028 32.3521 85.08 32.1761 85.12C32.0081 85.16 31.8321 85.18 31.6481 85.18C31.3921 85.18 31.1441 85.144 30.9041 85.072C30.6721 85.008 30.4681 84.9 30.2921 84.748C30.1161 84.596 29.9761 84.4 29.8721 84.16C29.7681 83.912 29.7161 83.616 29.7161 83.272V75.04H31.4801V82.972C31.4801 83.26 31.5361 83.46 31.6481 83.572C31.7681 83.676 31.9081 83.728 32.0681 83.728C32.2681 83.728 32.4601 83.668 32.6441 83.548V84.964ZM39.4263 78.052L36.3063 86.296C36.0743 86.912 35.7703 87.356 35.3943 87.628C35.0183 87.9 34.5703 88.036 34.0503 88.036C33.9703 88.036 33.8823 88.028 33.7863 88.012C33.6903 88.004 33.5983 87.988 33.5103 87.964L32.9343 86.356C33.0703 86.42 33.2103 86.468 33.3543 86.5C33.4983 86.54 33.6343 86.56 33.7623 86.56C34.0343 86.56 34.2823 86.496 34.5063 86.368C34.7303 86.248 34.9023 86.02 35.0223 85.684L35.2623 84.988L32.5863 78.052H34.4703L36.0663 82.516L37.5663 78.052H39.4263ZM47.9444 85H46.0844V80.752H42.3044V85H40.4444V75.412H42.3044V79.216H46.0844V75.412H47.9444V85ZM55.6531 85H53.9251V84.472C53.8131 84.584 53.6811 84.684 53.5291 84.772C53.3851 84.852 53.2291 84.924 53.0611 84.988C52.9011 85.044 52.7331 85.088 52.5571 85.12C52.3891 85.152 52.2291 85.168 52.0771 85.168C51.7251 85.168 51.3851 85.112 51.0571 85C50.7371 84.888 50.4531 84.716 50.2051 84.484C49.9571 84.252 49.7571 83.952 49.6051 83.584C49.4611 83.216 49.3891 82.78 49.3891 82.276V78.064H51.1171V82.192C51.1171 82.44 51.1531 82.66 51.2251 82.852C51.3051 83.036 51.4051 83.192 51.5251 83.32C51.6531 83.44 51.7971 83.532 51.9571 83.596C52.1251 83.652 52.2971 83.68 52.4731 83.68C53.0331 83.68 53.5171 83.488 53.9251 83.104V78.064H55.6531V85ZM63.7631 81.532C63.7631 82.02 63.6791 82.484 63.5111 82.924C63.3511 83.364 63.1231 83.752 62.8271 84.088C62.5311 84.416 62.1791 84.68 61.7711 84.88C61.3631 85.072 60.9151 85.168 60.4271 85.168C60.1231 85.168 59.8391 85.124 59.5751 85.036C59.3111 84.956 59.0631 84.824 58.8311 84.64V85H57.0911V75.04H58.8431V78.4C59.0431 78.24 59.2791 78.112 59.5511 78.016C59.8311 77.92 60.1231 77.872 60.4271 77.872C60.8511 77.872 61.2631 77.968 61.6631 78.16C62.0631 78.344 62.4191 78.6 62.7311 78.928C63.0431 79.256 63.2911 79.644 63.4751 80.092C63.6671 80.532 63.7631 81.012 63.7631 81.532ZM62.0111 81.532C62.0111 81.212 61.9631 80.92 61.8671 80.656C61.7711 80.392 61.6351 80.168 61.4591 79.984C61.2911 79.792 61.0871 79.648 60.8471 79.552C60.6151 79.448 60.3551 79.396 60.0671 79.396C59.8831 79.396 59.6711 79.436 59.4311 79.516C59.1911 79.588 58.9911 79.684 58.8311 79.804V83.14C59.2071 83.484 59.6311 83.656 60.1031 83.656C60.3751 83.656 60.6271 83.604 60.8591 83.5C61.0991 83.396 61.3031 83.252 61.4711 83.068C61.6391 82.876 61.7711 82.652 61.8671 82.396C61.9631 82.132 62.0111 81.844 62.0111 81.532ZM78.5581 85H76.5181L75.6301 83.08H70.9741L70.0741 85H68.0341L72.5701 75.4H74.0221L78.5581 85ZM74.8981 81.532L73.3021 78.076L71.6821 81.532H74.8981ZM85.9467 81.544C85.9467 82.032 85.8627 82.496 85.6947 82.936C85.5347 83.376 85.3067 83.764 85.0107 84.1C84.7147 84.428 84.3627 84.692 83.9547 84.892C83.5467 85.084 83.0987 85.18 82.6107 85.18C82.3067 85.18 82.0227 85.136 81.7587 85.048C81.4947 84.968 81.2467 84.836 81.0147 84.652L81.0267 88.012H79.2747V78.052H81.0267V78.412C81.2267 78.252 81.4627 78.124 81.7347 78.028C82.0147 77.932 82.3067 77.884 82.6107 77.884C83.0347 77.884 83.4467 77.98 83.8467 78.172C84.2467 78.356 84.6027 78.612 84.9147 78.94C85.2267 79.268 85.4747 79.656 85.6587 80.104C85.8507 80.544 85.9467 81.024 85.9467 81.544ZM84.1827 81.556C84.1827 81.228 84.1347 80.932 84.0387 80.668C83.9427 80.404 83.8067 80.18 83.6307 79.996C83.4627 79.804 83.2587 79.66 83.0187 79.564C82.7867 79.46 82.5267 79.408 82.2387 79.408C82.0547 79.408 81.8427 79.448 81.6027 79.528C81.3707 79.6 81.1747 79.7 81.0147 79.828V83.152C81.3907 83.496 81.8107 83.668 82.2747 83.668C82.5467 83.668 82.7987 83.616 83.0307 83.512C83.2707 83.408 83.4747 83.264 83.6427 83.08C83.8107 82.888 83.9427 82.664 84.0387 82.408C84.1347 82.144 84.1827 81.86 84.1827 81.556ZM93.7045 81.544C93.7045 82.032 93.6205 82.496 93.4525 82.936C93.2925 83.376 93.0645 83.764 92.7685 84.1C92.4725 84.428 92.1205 84.692 91.7125 84.892C91.3045 85.084 90.8565 85.18 90.3685 85.18C90.0645 85.18 89.7805 85.136 89.5165 85.048C89.2525 84.968 89.0045 84.836 88.7725 84.652L88.7845 88.012H87.0325V78.052H88.7845V78.412C88.9845 78.252 89.2205 78.124 89.4925 78.028C89.7725 77.932 90.0645 77.884 90.3685 77.884C90.7925 77.884 91.2045 77.98 91.6045 78.172C92.0045 78.356 92.3605 78.612 92.6725 78.94C92.9845 79.268 93.2325 79.656 93.4165 80.104C93.6085 80.544 93.7045 81.024 93.7045 81.544ZM91.9405 81.556C91.9405 81.228 91.8925 80.932 91.7965 80.668C91.7005 80.404 91.5645 80.18 91.3885 79.996C91.2205 79.804 91.0165 79.66 90.7765 79.564C90.5445 79.46 90.2845 79.408 89.9965 79.408C89.8125 79.408 89.6005 79.448 89.3605 79.528C89.1285 79.6 88.9325 79.7 88.7725 79.828V83.152C89.1485 83.496 89.5685 83.668 90.0325 83.668C90.3045 83.668 90.5565 83.616 90.7885 83.512C91.0285 83.408 91.2325 83.264 91.4005 83.08C91.5685 82.888 91.7005 82.664 91.7965 82.408C91.8925 82.144 91.9405 81.86 91.9405 81.556Z" fill="black" />
        </g>
    </g>
    <defs>
        <filter id="filter0_d_1_2" x="9.72" y="75.04" width="87.9845" height="20.996" filterUnits="userSpaceOnUse" color-interpolation-filters="sRGB">
            <feFlood flood-opacity="0" result="BackgroundImageFix" />
            <feColorMatrix in="SourceAlpha" type="matrix" values="0 0 0 0 0 0 0 0 0 0 0 0 0 0 0 0 0 0 127 0" result="hardAlpha" />
            <feOffset dy="4" />
            <feGaussianBlur stdDeviation="2" />
            <feComposite in2="hardAlpha" operator="out" />
            <feColorMatrix type="matrix" values="0 0 0 0 0 0 0 0 0 0 0 0 0 0 0 0 0 0 0.25 0" />
            <feBlend mode="normal" in2="BackgroundImageFix" result="effect1_dropShadow_1_2" />
            <feBlend mode="normal" in="SourceGraphic" in2="effect1_dropShadow_1_2" result="shape" />
        </filter>
    </defs>
</svg>