<svg width="100" height="100" viewBox="0 0 100 100" fill="none" xmlns="http://www.w3.org/2000/svg">
    <g id="flower">
        <g id="petals">
            <path d="M33.2066 36.1596C44.5687 41.4273 51.916 48.2831 49.6171 51.4725C47.3183 54.6619 36.2439 52.9771 24.8818 47.7094C13.5196 42.4417 6.17238 35.5859 8.47121 32.3965C10.77 29.2071 21.8444 30.8919 33.2066 36.1596Z" fill="#C4C4C4" />
            <path d="M24.8409 53.3454C36.2066 48.0826 47.2821 46.4026 49.5788 49.593C51.8755 52.7834 44.5236 59.6361 33.1579 64.8989C21.7923 70.1617 10.7167 71.8417 8.42005 68.6513C6.12336 65.4609 13.4752 58.6082 24.8409 53.3454Z" fill="#C4C4C4" />
            <path d="M41.6773 70.9381C41.6844 60.4125 45.4138 51.8815 50.0071 51.8834C54.6005 51.8854 58.3185 60.4197 58.3114 70.9453C58.3043 81.4709 54.575 90.002 49.9816 90C45.3882 89.998 41.6703 81.4637 41.6773 70.9381Z" fill="#C4C4C4" />
            <path d="M66.8421 64.4817C55.4764 59.2189 48.1245 52.3662 50.4212 49.1758C52.7179 45.9854 63.7934 47.6654 75.1591 52.9282C86.5248 58.191 93.8766 65.0437 91.5799 68.2341C89.2833 71.4245 78.2077 69.7445 66.8421 64.4817Z" fill="#C4C4C4" />
            <path d="M74.7188 47.3479C63.3496 52.6058 52.273 54.2811 49.9784 51.0897C47.6839 47.8983 55.0403 41.0488 66.4095 35.7909C77.7787 30.533 88.8553 28.8577 91.1499 32.0491C93.4444 35.2405 86.088 42.09 74.7188 47.3479Z" fill="#C4C4C4" />
            <path d="M58.1442 30.0583C58.1442 40.5839 54.4205 49.1166 49.8272 49.1166C45.2338 49.1166 41.5101 40.5839 41.5101 30.0583C41.5101 19.5327 45.2338 11 49.8272 11C54.4205 11 58.1442 19.5327 58.1442 30.0583Z" fill="#C4C4C4" />
        </g>
        <g id="petals2">
            <path d="M33.6866 47.5624C43.4838 46.8847 51.31 48.9433 51.1669 52.1604C51.0239 55.3776 42.9657 58.535 33.1685 59.2127C23.3714 59.8904 15.5451 57.8318 15.6882 54.6147C15.8312 51.3976 23.8894 48.2402 33.6866 47.5624Z" fill="#C4C4C4" />
            <path d="M35.5774 63.3083C40.8255 55.007 47.4301 49.4136 50.3292 50.8152C53.2283 52.2168 51.324 60.0825 46.0759 68.3839C40.8278 76.6852 34.2232 82.2786 31.3241 80.877C28.425 79.4755 30.3293 71.6097 35.5774 63.3083Z" fill="#C4C4C4" />
            <path d="M54.325 69.3882C49.7803 61.7667 48.5615 54.1177 51.6027 52.3037C54.6438 50.4898 60.7933 55.1977 65.3379 62.8191C69.8825 70.4406 71.1013 78.0896 68.0602 79.9035C65.0191 81.7175 58.8696 77.0096 54.325 69.3882Z" fill="#C4C4C4" />
            <path d="M68.1905 54.769C58.3932 55.4517 50.5653 53.3972 50.7065 50.1802C50.8477 46.9632 58.9045 43.8019 68.7019 43.1193C78.4993 42.4366 86.3272 44.4911 86.186 47.7081C86.0448 50.9251 77.9879 54.0864 68.1905 54.769Z" fill="#C4C4C4" />
            <path d="M65.9986 39.2541C60.7461 47.5533 54.1386 53.1437 51.2406 51.7405C48.3425 50.3374 50.2512 42.4721 55.5037 34.1729C60.7563 25.8737 67.3637 20.2833 70.2618 21.6865C73.1598 23.0896 71.2512 30.9549 65.9986 39.2541Z" fill="#C4C4C4" />
            <path d="M47.5554 33.2902C52.1046 40.9089 53.3279 48.5567 50.2877 50.3721C47.2474 52.1876 41.0948 47.4831 36.5455 39.8644C31.9962 32.2457 30.7729 24.5979 33.8132 22.7824C36.8535 20.967 43.0061 25.6715 47.5554 33.2902Z" fill="#C4C4C4" />
        </g>
        <ellipse id="petalHub" cx="50" cy="49.5238" rx="10" ry="9.52381" fill="#575148" />
    </g>
</svg>