<svg width="120" height="100" viewBox="0 0 120 100" fill="none" xmlns="http://www.w3.org/2000/svg">
    <g id="triangles">
        <g id="lightGroup">
            <path id="light1" opacity="0.6" d="M36.5 45.4019C38.5 46.5566 38.5 49.4434 36.5 50.5981L8 67.0526C6 68.2073 3.5 66.7639 3.5 64.4545L3.5 31.5455C3.5 29.2361 6 27.7927 8 28.9474L36.5 45.4019Z" />
        </g>
        <g id="darkGroup">
            <path id="dark2" opacity="0.8" d="M36.5 45.4019C38.5 46.5566 38.5 49.4434 36.5 50.5981L8 67.0526C6 68.2073 3.5 66.7639 3.5 64.4545L3.5 31.5455C3.5 29.2361 6 27.7927 8 28.9474L36.5 45.4019Z" />
            <path id="dark1" opacity="0.8" d="M48.5 45.4019C50.5 46.5566 50.5 49.4434 48.5 50.5981L20 67.0526C18 68.2073 15.5 66.7639 15.5 64.4545L15.5 31.5455C15.5 29.2361 18 27.7928 20 28.9475L48.5 45.4019Z" />
        </g>
    </g>
</svg>